<svg xmlns="http://www.w3.org/2000/svg" xmlns:svgjs="http://svgjs.com/svgjs" xmlns:xlink="http://www.w3.org/1999/xlink" width="2008" height="1632" version="1.1"><svg xmlns="http://www.w3.org/2000/svg" width="2008" height="1632" fill="none" viewBox="0 0 2008 1632"><path fill="#000" d="M1044.72 1631.37C1040.51 1631.37 1036.29 1631.25 1032.07 1631.02C921.494 1624.87 827.744 1539.02 809.144 1426.8L808.434 1418.21L805.311 236.073C805.235 207.408 781.976 184.21 753.311 184.21H212.024C149.924 198.85 106.024 253.89 106.874 316.87C107.674 375.27 148.934 427.87 205.874 444.13L551.794 437.48L553.794 544.24L193.794 551.16L187.214 549.59C78.5341 523.79 1.60407 428.7 0.0240679 318.32C-1.61593 202.32 80.7241 101.37 195.824 78.41L206.264 77.41H859.802C888.467 77.41 911.726 100.607 911.801 129.272L915.204 1413.29C927.144 1474.63 978.204 1521.1 1038.01 1524.43C1069.5 1526.19 1100.35 1515.66 1125.15 1496.24C1154.64 1473.15 1161.9 1433.39 1162.17 1395.94L1168.48 499.32C1168.68 470.864 1191.72 447.855 1220.17 447.687L1789.33 444.33C1846.85 429.27 1890.76 383.77 1899.39 329.64C1909.96 263.31 1865.58 194.87 1797.54 170.64H1096.18V63.79H1814.02L1821.61 66.09C1945.54 103.78 2024.33 224.26 2004.86 346.37C1989.16 444.84 1909.92 526.54 1807.67 549.67L1796.18 551L1326.2 553.777C1297.75 553.945 1274.71 576.954 1274.51 605.41L1268.91 1401.13C1268.56 1451.38 1260.12 1503.19 1227.24 1541.18C1180.55 1595.12 1112.92 1631.37 1044.72 1631.37Z"/><path fill="#80B36F" d="M617.264 606.29C681.042 606.29 732.744 554.588 732.744 490.81C732.744 427.032 681.042 375.33 617.264 375.33C553.486 375.33 501.784 427.032 501.784 490.81C501.784 554.588 553.486 606.29 617.264 606.29Z"/><path fill="#4EDFFF" d="M1096.18 234.36C1160.9 234.36 1213.36 181.897 1213.36 117.18C1213.36 52.4633 1160.9 0 1096.18 0C1031.47 0 979.004 52.4633 979.004 117.18C979.004 181.897 1031.47 234.36 1096.18 234.36Z"/></svg><style>@media (prefers-color-scheme:light){:root{filter:none}}@media (prefers-color-scheme:dark){:root{filter:contrast(.7407407407407407) brightness(2)}}</style></svg>