<svg xmlns="http://www.w3.org/2000/svg" width="2677.333" height="2677.333" preserveAspectRatio="xMidYMid meet" version="1.0" viewBox="0 0 2008 2008"><metadata>Created by potrace 1.14, written by Peter Selinger 2001-2017</metadata><g fill="#000" stroke="none"><path d="M10771 18184 c-320 -54 -603 -237 -785 -509 -68 -102 -141 -265 -161 -358 -3 -15 -8 -39 -11 -54 -17 -82 -22 -139 -22 -240 2 -328 136 -632 376 -854 416 -386 1053 -416 1503 -73 112 86 237 226 299 337 23 41 38 57 53 58 12 0 1354 2 2982 2 2798 2 2963 1 3010 -16 47 -16 175 -78 240 -115 167 -95 387 -302 502 -472 57 -84 153 -268 153 -293 0 -7 4 -17 9 -22 15 -16 59 -181 75 -278 15 -96 18 -282 6 -349 -5 -24 -10 -61 -13 -83 -3 -22 -10 -53 -16 -68 -6 -15 -8 -27 -6 -27 8 0 -56 -165 -96 -244 -168 -337 -491 -609 -874 -738 l-90 -31 -425 -3 c-567 -3 -2147 -13 -3350 -20 -2068 -11 -1997 -10 -2070 -33 -171 -54 -295 -176 -352 -346 -23 -68 -22 -57 -33 -1530 -3 -434 -7 -1071 -10 -1415 -2 -344 -7 -996 -10 -1450 -3 -454 -8 -1093 -10 -1420 -2 -327 -7 -962 -10 -1410 -16 -2307 -10 -2119 -72 -2380 -38 -163 -130 -335 -237 -445 -36 -37 -146 -122 -196 -152 -313 -186 -601 -236 -962 -168 -57 11 -236 79 -304 116 -345 186 -583 489 -694 886 -18 64 -19 115 -20 893 -1 454 -3 1370 -5 2035 -3 1092 -9 3117 -20 7465 -7 2546 -7 2570 -20 2635 -24 114 -86 216 -179 291 -68 56 -117 80 -206 102 -72 18 -189 19 -3405 17 -1831 -1 -3343 -5 -3360 -9 -561 -125 -1006 -385 -1369 -799 -33 -37 -71 -84 -85 -105 -14 -20 -33 -46 -44 -57 -31 -34 -145 -220 -196 -323 -113 -225 -200 -488 -227 -687 -3 -22 -7 -46 -9 -53 -26 -78 -26 -566 0 -685 2 -12 6 -35 9 -52 23 -155 86 -372 152 -527 145 -342 373 -656 645 -888 113 -97 118 -101 204 -161 239 -168 516 -293 815 -369 91 -23 61 -23 965 -5 412 8 869 17 1035 20 604 11 862 16 1067 21 l232 5 47 -73 c120 -186 268 -320 460 -416 90 -46 232 -94 309 -106 189 -29 327 -24 500 21 412 106 745 451 834 863 34 157 34 364 0 503 -5 20 -13 54 -19 75 -15 61 -68 182 -112 257 -182 310 -495 516 -853 562 -66 9 -214 9 -291 0 -238 -28 -482 -147 -661 -325 -79 -78 -169 -195 -200 -259 -11 -25 -22 -33 -42 -34 -82 -3 -318 -8 -631 -14 -195 -3 -438 -8 -540 -10 -194 -4 -725 -14 -1040 -20 -102 -2 -336 -6 -521 -10 l-336 -6 -97 36 c-214 80 -408 215 -555 386 -101 117 -162 216 -240 391 -22 50 -64 201 -78 278 -10 60 -10 332 0 395 70 438 343 806 745 1008 40 20 72 34 72 30 0 -3 6 -1 13 5 6 5 48 23 92 38 l80 29 2749 1 c2246 1 2762 -1 2813 -12 174 -36 323 -174 381 -353 l24 -76 3 -1050 c2 -577 6 -2098 9 -3380 13 -4666 17 -6144 20 -6840 l3 -710 27 -117 c145 -633 480 -1137 1003 -1509 46 -32 85 -59 87 -59 2 0 33 -17 68 -39 254 -154 611 -276 894 -307 32 -3 67 -8 78 -10 70 -14 506 3 536 21 3 2 25 6 50 10 151 23 375 99 575 196 154 75 191 96 304 171 173 116 263 191 428 355 182 182 282 320 366 510 35 78 95 251 102 295 3 18 10 47 15 63 5 17 11 44 14 60 2 17 9 59 15 95 38 239 39 283 46 1320 3 481 8 1138 10 1460 4 549 11 1596 20 2795 22 3176 20 2987 32 3010 6 11 11 25 12 30 1 6 6 25 12 43 47 143 195 275 355 317 64 17 98 17 2274 30 2734 15 2611 13 2745 48 478 124 899 372 1247 732 79 82 225 258 235 285 4 8 10 17 14 20 4 3 32 46 63 95 72 114 174 320 221 450 41 110 99 329 110 415 4 30 9 62 10 71 30 163 26 481 -10 704 -57 360 -241 795 -452 1070 -13 17 -27 35 -31 40 -101 139 -294 337 -446 458 -255 203 -547 361 -856 462 l-115 37 -3069 0 -3068 1 -27 45 c-174 298 -453 497 -801 572 -84 18 -311 20 -409 4z" transform="translate(0.000000,2008.000000) scale(0.100000,-0.100000)"/></g></svg>